<?xml version="1.0" standalone="no"?>
<!DOCTYPE svg PUBLIC "-//W3C//DTD SVG 20010904//EN"
 "http://www.w3.org/TR/2001/REC-SVG-20010904/DTD/svg10.dtd">
<svg version="1.0" xmlns="http://www.w3.org/2000/svg"
 width="424.000000pt" height="588.000000pt" viewBox="0 0 424.000000 588.000000"
 preserveAspectRatio="xMidYMid meet">

<g transform="translate(0.000000,588.000000) scale(0.100000,-0.100000)"
fill="#000000" stroke="none">
<path d="M2125 5580 c-22 -4 12 -5 75 -2 63 3 117 6 119 8 7 7 -152 1 -194 -6z"/>
<path d="M2338 5573 c6 -2 18 -2 25 0 6 3 1 5 -13 5 -14 0 -19 -2 -12 -5z"/>
<path d="M1999 5556 c-39 -11 -94 -36 -79 -35 3 0 41 11 85 24 82 24 77 33 -6
11z"/>
<path d="M2405 5560 c27 -12 43 -12 25 0 -8 5 -22 9 -30 9 -10 0 -8 -3 5 -9z"/>
<path d="M2451 5546 c10 -9 89 -46 89 -41 0 5 -75 45 -86 45 -4 0 -5 -2 -3 -4z"/>
<path d="M1859 5489 l-24 -20 28 17 c15 9 27 18 27 20 0 8 -8 4 -31 -17z"/>
<path d="M2322 5418 c-20 -140 -16 -175 32 -257 l14 -25 16 32 c9 18 16 55 16
91 0 87 -38 241 -60 241 -4 0 -12 -37 -18 -82z"/>
<path d="M2550 5496 c0 -2 8 -10 18 -17 15 -13 16 -12 3 4 -13 16 -21 21 -21
13z"/>
<path d="M1780 5425 c-41 -42 -48 -45 -100 -47 l-55 -1 48 -6 47 -6 -26 -40
c-15 -22 -28 -41 -30 -43 -1 -2 -12 2 -24 8 -22 12 -22 11 -15 -16 11 -44 11
-43 -19 -138 -15 -48 -31 -118 -34 -155 -7 -64 -8 -66 -42 -79 -31 -11 -32
-12 -5 -7 17 3 36 6 43 7 7 1 12 18 12 47 0 52 33 199 54 238 l13 27 22 -48
c11 -27 21 -52 21 -56 0 -13 82 -90 96 -90 8 0 14 10 14 23 0 12 3 39 6 59 7
39 1 46 -110 140 l-29 24 28 45 c16 24 53 70 83 102 30 31 53 57 51 57 -3 0
-25 -20 -49 -45z"/>
<path d="M1518 5383 c17 -2 47 -2 65 0 17 2 3 4 -33 4 -36 0 -50 -2 -32 -4z"/>
<path d="M2670 5387 c0 -2 15 -16 33 -33 l32 -29 -29 33 c-28 30 -36 37 -36
29z"/>
<path d="M1378 5373 c12 -2 32 -2 45 0 12 2 2 4 -23 4 -25 0 -35 -2 -22 -4z"/>
<path d="M1303 5363 c9 -2 25 -2 35 0 9 3 1 5 -18 5 -19 0 -27 -2 -17 -5z"/>
<path d="M1248 5353 c6 -2 18 -2 25 0 6 3 1 5 -13 5 -14 0 -19 -2 -12 -5z"/>
<path d="M1198 5343 c7 -3 16 -2 19 1 4 3 -2 6 -13 5 -11 0 -14 -3 -6 -6z"/>
<path d="M2446 5331 c-3 -5 1 -11 9 -15 8 -3 15 -1 15 4 0 13 -18 22 -24 11z"/>
<path d="M2258 5323 c6 -2 18 -2 25 0 6 3 1 5 -13 5 -14 0 -19 -2 -12 -5z"/>
<path d="M2163 5313 c9 -2 25 -2 35 0 9 3 1 5 -18 5 -19 0 -27 -2 -17 -5z"/>
<path d="M987 5260 l-47 -30 2 -77 2 -78 3 77 4 78 44 26 c39 22 53 34 42 34
-2 0 -24 -13 -50 -30z"/>
<path d="M2225 5230 c3 -5 11 -10 16 -10 6 0 7 5 4 10 -3 6 -11 10 -16 10 -6
0 -7 -4 -4 -10z"/>
<path d="M2143 5223 c9 -2 23 -2 30 0 6 3 -1 5 -18 5 -16 0 -22 -2 -12 -5z"/>
<path d="M2413 5180 c-43 -66 -42 -75 2 -16 28 35 42 46 64 46 27 0 29 -3 49
-87 36 -151 52 -252 52 -332 l-1 -76 -46 50 c-25 28 -41 43 -34 34 9 -14 8
-17 -9 -22 -16 -4 -26 6 -51 49 -17 30 -33 54 -35 54 -3 0 9 -25 26 -55 17
-30 30 -55 28 -55 -2 0 -28 -9 -58 -20 -30 -11 -56 -20 -57 -20 -1 0 -4 75 -6
168 l-3 167 -2 -182 -2 -181 60 29 c33 16 63 29 67 29 4 0 18 -10 31 -22 l25
-23 -18 28 c-17 26 -17 27 2 27 17 0 93 -67 93 -82 0 -3 -14 -8 -30 -10 -23
-3 -30 -1 -26 9 4 9 -1 9 -19 -3 -14 -9 -37 -17 -53 -19 -31 -2 -107 -39 -119
-57 -18 -30 -10 -35 30 -20 31 13 42 13 45 4 6 -18 19 -14 25 8 5 20 37 29 37
10 0 -5 -7 -10 -15 -10 -8 0 -15 -4 -15 -9 0 -14 18 -23 24 -12 8 13 56 10 56
-4 0 -20 -35 -45 -63 -45 -19 0 -27 -5 -27 -17 0 -13 3 -14 12 -5 7 7 22 12
35 12 13 0 23 5 23 10 0 6 7 10 16 10 9 0 30 10 46 22 l31 21 -8 -159 c-6
-148 -8 -162 -32 -196 -54 -80 -217 -208 -265 -208 -36 0 -208 72 -265 112
-48 32 -80 72 -113 138 -13 25 -43 71 -67 103 -44 58 -53 97 -10 43 18 -22 32
-29 72 -32 44 -3 46 -3 19 6 -16 5 -41 21 -54 36 -24 25 -25 26 -5 37 11 6 30
12 43 12 19 1 22 -3 18 -21 -4 -14 0 -27 12 -35 15 -12 16 -12 4 2 -13 17 -6
53 9 43 5 -3 6 2 3 10 -5 12 0 16 17 15 13 0 18 -3 12 -6 -13 -5 -19 -33 -7
-33 3 0 12 7 21 16 9 8 22 13 30 10 10 -4 11 -1 3 13 -13 25 -87 49 -125 40
-16 -4 -45 -7 -63 -8 -33 -1 -33 -1 -26 37 8 47 8 47 51 44 31 -2 34 0 28 15
-33 80 -48 129 -70 231 -14 64 -23 97 -20 72 15 -125 17 -207 5 -316 -6 -65
-15 -123 -18 -128 -3 -6 -6 -35 -7 -65 -1 -31 -5 -126 -9 -211 -4 -94 -4 -167
2 -185 8 -23 9 -13 5 41 -3 39 -2 97 2 130 l7 58 19 -25 c10 -13 32 -59 49
-102 25 -65 30 -93 30 -163 0 -46 -4 -84 -9 -84 -5 0 -26 19 -47 43 -35 40
-36 40 -18 8 10 -19 31 -41 46 -50 18 -10 28 -25 29 -41 2 -23 2 -23 6 -3 2
12 16 27 31 32 l27 11 -27 -5 -28 -5 0 72 1 73 35 -75 c20 -41 58 -106 86
-143 l49 -68 -27 -37 c-15 -20 -52 -65 -82 -99 -41 -47 -52 -67 -47 -82 9 -29
-16 -18 -42 17 -55 74 -87 168 -108 317 -20 139 -20 143 6 114 l20 -24 -16 27
c-9 15 -23 47 -30 70 -13 42 -13 41 -8 -37 6 -107 29 -250 53 -327 10 -34 18
-64 16 -66 -5 -5 -61 93 -85 151 -25 58 -45 135 -61 237 -15 87 -20 81 -50
-60 l-19 -85 0 68 c-1 74 19 186 51 287 23 72 23 84 9 485 l-8 230 -2 -200
c-1 -130 -5 -194 -11 -184 -5 9 -21 58 -34 110 -14 52 -25 85 -25 74 -1 -11 6
-45 14 -75 8 -30 15 -57 14 -60 0 -3 -34 62 -75 145 -62 123 -73 151 -61 160
9 6 11 17 7 29 -6 17 -8 16 -18 -12 -10 -30 -6 -42 55 -165 138 -279 136 -274
141 -367 3 -72 -1 -104 -29 -210 -28 -104 -33 -143 -33 -235 -1 -101 2 -114
27 -162 15 -29 30 -53 32 -53 3 0 -2 15 -12 33 -23 42 -23 186 0 237 l15 35 1
-31 c3 -90 73 -278 145 -383 20 -29 36 -60 37 -70 0 -10 2 -12 6 -3 3 9 17 1
44 -23 21 -19 45 -35 53 -35 24 0 111 -143 161 -264 72 -176 94 -269 95 -405
l0 -65 -54 -53 c-30 -28 -107 -91 -171 -138 -63 -47 -143 -114 -176 -148 -118
-121 -204 -280 -240 -447 -12 -58 -25 -111 -29 -118 -12 -25 -129 77 -405 352
-148 148 -287 281 -308 297 l-39 28 27 7 c14 3 24 8 21 11 -7 7 -105 -25 -120
-40 -22 -22 -46 -74 -46 -101 0 -14 -5 -28 -10 -31 -6 -4 -8 -11 -5 -16 3 -5
10 -34 15 -65 l9 -57 -38 -37 c-48 -46 -117 -133 -137 -172 -21 -41 -11 -34
21 14 16 24 58 73 94 111 l65 67 22 -52 22 -52 -40 -28 c-21 -16 -69 -59 -107
-96 -37 -37 -52 -54 -34 -38 40 36 43 26 7 -21 -14 -19 -24 -36 -21 -39 2 -2
15 13 29 33 38 57 117 142 147 157 26 14 26 13 72 -69 l45 -82 -48 12 c-72 19
-145 28 -151 18 -9 -14 19 -111 48 -168 14 -27 24 -41 21 -30 -3 11 -1 27 4
35 7 11 1 23 -20 45 -16 16 -32 47 -35 68 -7 35 -6 37 20 37 27 0 27 -1 11
-19 -16 -18 -15 -20 27 -55 l45 -37 37 18 c29 14 36 22 32 40 -4 20 1 22 62
28 36 3 93 10 125 15 33 5 61 8 64 6 2 -2 -8 -27 -22 -55 -30 -58 -77 -95
-151 -116 -49 -15 -89 -35 -70 -35 6 0 32 7 58 15 l48 14 -21 -29 -21 -30 25
-12 c14 -6 26 -17 26 -24 0 -13 -96 -94 -111 -94 -5 0 -9 13 -9 29 0 15 -12
45 -26 66 -20 30 -23 40 -12 46 7 5 17 9 22 9 5 0 7 3 4 6 -3 3 -23 -2 -44
-11 -36 -15 -39 -15 -52 2 -13 17 -14 17 -9 -2 3 -11 9 -42 13 -68 6 -44 9
-48 28 -42 44 13 50 10 62 -33 10 -32 10 -49 2 -67 -6 -13 -8 -31 -5 -39 5
-13 11 -12 33 9 15 14 33 24 39 21 18 -6 91 29 138 68 23 18 69 46 102 61 33
15 87 40 120 55 33 15 90 48 127 73 50 34 82 48 130 57 34 6 71 13 81 15 16 3
15 0 -5 -33 -12 -21 -41 -62 -65 -93 -23 -31 -48 -68 -54 -83 -7 -14 -16 -26
-21 -26 -14 0 -171 -106 -209 -141 -19 -19 -48 -51 -63 -71 l-28 -37 21 -27
c30 -38 26 -48 -22 -62 -42 -13 -46 -12 -105 22 -33 20 -64 36 -69 37 -4 0
-34 30 -66 65 -31 35 -57 60 -57 56 0 -5 14 -21 30 -37 17 -16 30 -33 30 -37
0 -12 36 -49 95 -97 55 -45 78 -49 165 -29 38 9 55 18 65 37 23 46 51 64 86
57 50 -10 97 -44 104 -75 4 -20 16 -33 43 -44 48 -21 117 -33 109 -20 -4 6 22
59 58 119 36 59 65 109 65 110 0 1 16 26 36 55 24 36 33 60 30 75 -5 19 -2 22
22 20 15 0 35 -10 44 -21 16 -19 15 -20 -4 -25 -31 -8 -51 -70 -32 -101 33
-59 34 -64 5 -163 -15 -52 -30 -98 -33 -101 -3 -3 -33 1 -66 9 -33 9 -70 16
-83 15 -20 0 90 -31 236 -65 l40 -9 -3 -151 c-3 -151 -3 -151 20 -158 13 -3
38 -6 56 -6 18 0 32 -5 32 -12 0 -6 2 -9 5 -7 2 3 -7 47 -21 99 -14 52 -27
122 -31 155 -6 69 0 79 58 90 34 6 36 5 45 -27 l10 -33 149 0 c162 0 201 10
220 53 5 12 15 22 22 22 6 0 18 3 27 6 10 4 17 -2 22 -20 8 -35 33 -34 165 9
59 19 123 36 140 37 l33 3 43 -110 c24 -60 62 -168 83 -240 22 -71 38 -111 34
-88 -5 38 -3 43 23 59 83 52 139 114 103 114 -6 0 -13 7 -17 17 -5 11 10 31
52 68 l58 52 -20 29 c-64 93 -149 234 -157 262 -6 18 -15 22 -52 22 l-44 0 0
-60 c0 -53 3 -64 30 -92 30 -31 38 -44 20 -33 -23 14 -8 -15 18 -34 21 -16 23
-20 10 -21 -10 0 -18 4 -18 8 0 5 -14 9 -30 9 -38 0 -44 6 -29 31 10 17 7 33
-20 103 -19 46 -37 92 -42 101 -10 20 -10 141 0 178 6 21 11 11 31 -59 15 -51
30 -85 40 -88 8 -2 27 -10 42 -18 l27 -14 -26 72 c-14 40 -29 77 -33 82 -4 6
-20 47 -36 93 l-28 83 -12 -63 c-7 -35 -26 -103 -43 -152 -32 -93 -37 -110
-22 -87 13 20 26 7 46 -46 10 -26 31 -71 47 -100 l29 -52 -48 1 c-42 1 -87 -8
-192 -38 l-23 -7 7 89 c3 49 9 112 11 139 3 28 5 88 5 135 -1 77 1 83 14 66 8
-11 15 -29 16 -40 4 -66 8 -89 22 -104 8 -9 22 -32 32 -50 9 -19 18 -32 20
-30 2 2 -7 26 -20 53 -37 74 -114 375 -116 450 0 22 -3 34 -6 27 -2 -6 -9 -9
-15 -6 -5 3 -37 -24 -71 -62 -71 -77 -348 -326 -355 -319 -10 10 -86 208 -163
425 -100 283 -130 334 -244 416 l-29 21 24 31 c50 62 124 110 216 139 71 23
89 33 94 51 3 12 20 31 38 42 18 11 36 28 39 38 4 9 21 35 39 57 17 22 39 56
49 75 10 19 28 49 40 65 12 17 28 41 34 55 10 21 9 22 -1 6 -17 -24 -107 -138
-119 -151 -7 -7 -8 4 -4 31 10 56 -11 183 -47 289 -34 100 -125 292 -163 341
-14 18 -25 37 -25 42 0 6 -7 12 -15 16 -8 3 -20 17 -27 31 -10 23 -7 29 38 78
27 29 65 71 84 93 l35 40 74 -62 c41 -35 103 -80 138 -100 35 -20 67 -42 71
-48 3 -6 14 -49 23 -96 10 -47 18 -74 18 -60 1 14 -5 57 -12 95 l-14 70 101 0
101 0 0 -25 c-1 -14 -4 -38 -8 -55 l-8 -30 21 25 c11 14 20 36 20 50 1 14 2
104 3 200 2 144 6 192 25 269 12 51 21 96 18 98 -2 2 -16 -47 -30 -109 -27
-114 -73 -269 -83 -278 -3 -3 -3 11 1 30 29 146 51 490 57 880 2 176 -35 455
-82 606 -19 61 -21 64 -52 64 -27 0 -37 -8 -64 -50z m-528 -542 c6 -15 2 -18
-25 -18 -29 0 -32 3 -26 23 3 12 6 42 7 67 l0 45 18 -50 c10 -27 21 -58 26
-67z m695 -21 c0 -13 -10 -33 -22 -45 l-23 -21 -1 30 c-1 16 3 29 7 29 5 0 9
7 9 15 0 8 7 15 15 15 9 0 15 -9 15 -23z m-735 -270 c18 -28 45 -125 42 -156
-2 -35 -20 -24 -55 34 -29 48 -32 60 -26 100 7 51 17 56 39 22z m704 -197
c-15 -61 -6 -177 14 -198 15 -14 13 -17 -26 -35 -55 -25 -129 -25 -196 2 -30
12 -63 19 -75 16 -14 -4 -17 -3 -8 3 9 6 6 11 -13 20 -17 8 -25 20 -25 37 0
25 1 25 53 19 53 -6 53 -6 132 54 44 33 95 76 114 96 19 20 36 35 37 33 2 -1
-2 -23 -7 -47z m-313 -208 c-5 -4 -86 36 -86 43 0 3 20 -5 45 -17 24 -12 43
-23 41 -26z m-398 -377 c-3 -3 -9 2 -12 12 -6 14 -5 15 5 6 7 -7 10 -15 7 -18z
m-1098 -1415 c6 0 9 -3 6 -8 -2 -4 3 -16 11 -27 15 -20 15 -20 10 1 -9 40 48
68 91 45 24 -13 54 -23 75 -26 16 -2 77 -50 85 -68 2 -4 7 -5 11 -3 4 3 8 -1
8 -9 0 -8 -2 -13 -5 -11 -4 5 -5 4 -111 -83 -72 -60 -75 -61 -94 -44 -36 33
-156 299 -157 348 0 6 13 -18 30 -52 16 -35 34 -63 40 -63z m273 -191 c19 -2
-45 -17 -73 -17 -24 0 -24 0 5 13 17 8 36 12 43 10 8 -3 19 -6 25 -6z m633
-192 c-10 -40 -53 -84 -86 -89 -27 -4 -30 -2 -24 16 4 12 12 28 19 36 6 8 23
34 35 58 24 42 24 42 43 23 14 -13 18 -27 13 -44z m-237 36 c0 -12 -49 -47
-114 -83 l-60 -33 34 36 34 36 -27 7 c-33 8 -22 23 26 34 44 10 108 12 107 3z
m1231 -5 c0 -7 3 -23 6 -35 7 -26 -13 -31 -48 -12 -20 11 -20 11 3 35 25 26
39 31 39 12z m-2 -100 c11 -23 9 -42 -13 -135 -15 -63 -32 -113 -42 -120 -21
-16 -24 -90 -3 -84 42 11 70 12 70 3 0 -13 -62 -62 -78 -62 -6 0 -18 -7 -27
-16 -9 -9 -19 -14 -22 -10 -9 9 -9 97 0 134 8 28 6 32 -11 32 -22 0 -30 23
-33 100 -5 123 -1 144 34 168 46 32 107 27 125 -10z m-1488 -47 c0 -9 -139
-81 -158 -81 -7 0 -31 -9 -53 -21 -23 -11 -47 -18 -54 -15 -7 2 -18 -1 -24 -7
-6 -6 -13 -8 -17 -5 -3 4 11 18 33 32 21 15 58 42 82 61 31 26 47 33 55 25 9
-6 27 -5 57 4 52 17 79 19 79 7z m494 -7 c9 -8 16 -22 16 -30 0 -7 9 -19 20
-26 11 -7 20 -18 20 -25 0 -17 -40 -17 -40 0 -1 6 -14 27 -30 46 -27 32 -31
51 -10 51 5 0 16 -7 24 -16z m-84 -39 c0 -3 -16 -34 -35 -69 -19 -35 -35 -71
-35 -80 0 -23 -80 -166 -95 -173 -7 -2 -36 7 -64 22 -32 16 -77 28 -117 32
-35 3 -64 9 -64 12 0 13 86 90 155 138 98 68 145 94 177 99 16 1 36 8 46 13
19 12 32 14 32 6z m850 -53 c0 -13 10 -46 22 -74 14 -34 18 -53 11 -55 -7 -3
-9 -17 -6 -36 7 -48 20 -66 42 -60 16 4 21 -3 31 -51 15 -72 -3 -139 -40 -144
-19 -3 -22 0 -17 20 14 59 18 98 11 99 -58 4 -95 2 -97 -5 -8 -23 -38 81 -43
147 -6 80 10 144 48 184 24 26 38 17 38 -25z m-88 -258 c13 -51 13 -62 2 -70
-8 -5 -17 -23 -20 -39 -5 -27 -2 -31 25 -42 27 -10 31 -16 31 -46 0 -34 -2
-36 -50 -46 -61 -13 -207 -15 -214 -2 -8 13 40 144 69 187 16 23 25 51 25 75
0 21 4 40 9 43 4 3 19 33 31 66 13 34 32 67 44 76 21 14 21 13 27 -63 3 -43
13 -105 21 -139z m-341 140 c36 -26 49 -42 49 -61 0 -24 -3 -22 -57 27 -32 29
-59 57 -61 61 -8 19 23 7 69 -27z m138 -120 c2 -2 2 -7 -2 -10 -9 -9 -57 5
-57 16 0 9 47 4 59 -6z m36 -4 c-3 -5 -10 -10 -16 -10 -5 0 -9 5 -9 10 0 6 7
10 16 10 8 0 12 -4 9 -10z m-330 -105 c8 -72 3 -95 -20 -95 -17 0 -19 23 -9
108 4 28 10 52 15 52 4 0 11 -29 14 -65z m595 -79 c0 -2 -7 -7 -16 -10 -8 -3
-12 -2 -9 4 6 10 25 14 25 6z"/>
<path d="M2640 5225 c0 -5 5 -17 10 -25 5 -8 10 -10 10 -5 0 6 -5 17 -10 25
-5 8 -10 11 -10 5z"/>
<path d="M2810 5190 c6 -11 13 -20 16 -20 2 0 0 9 -6 20 -6 11 -13 20 -16 20
-2 0 0 -9 6 -20z"/>
<path d="M1900 5163 c-37 -16 -50 -29 -50 -52 0 -12 2 -12 13 1 6 9 30 28 51
42 43 29 39 32 -14 9z"/>
<path d="M2335 5140 c10 -11 20 -20 23 -20 3 0 -3 9 -13 20 -10 11 -20 20 -23
20 -3 0 3 -9 13 -20z"/>
<path d="M1465 5037 c2 -38 6 -71 9 -74 9 -9 6 55 -4 102 -7 34 -8 29 -5 -28z"/>
<path d="M1826 5043 c-6 -14 -5 -15 5 -6 7 7 10 15 7 18 -3 3 -9 -2 -12 -12z"/>
<path d="M2691 5044 c0 -11 3 -14 6 -6 3 7 2 16 -1 19 -3 4 -6 -2 -5 -13z"/>
<path d="M2883 5050 c3 -8 20 -49 38 -89 43 -102 105 -287 124 -369 12 -51 20
-68 33 -69 9 0 33 -3 52 -7 26 -5 23 -2 -12 9 -41 13 -48 20 -58 53 -5 20 -10
43 -10 49 0 20 -70 221 -106 306 -19 43 -34 81 -34 83 0 2 15 1 33 -1 l32 -5
-35 11 c-19 5 -41 18 -49 27 -10 13 -12 13 -8 2z"/>
<path d="M1410 5046 c0 -2 8 -10 18 -17 15 -13 16 -12 3 4 -13 16 -21 21 -21
13z"/>
<path d="M1665 4989 c-10 -81 -1 -84 11 -4 5 36 6 65 3 65 -4 0 -10 -27 -14
-61z"/>
<path d="M1700 5035 c0 -7 101 -57 106 -53 2 2 -21 16 -51 31 -30 15 -55 25
-55 22z"/>
<path d="M2701 5004 c0 -11 3 -14 6 -6 3 7 2 16 -1 19 -3 4 -6 -2 -5 -13z"/>
<path d="M2995 5000 c11 -5 31 -8 45 -8 l25 0 -25 8 c-14 4 -34 8 -45 8 l-20
1 20 -9z"/>
<path d="M3078 4983 c7 -3 16 -2 19 1 4 3 -2 6 -13 5 -11 0 -14 -3 -6 -6z"/>
<path d="M3118 4973 c7 -3 16 -2 19 1 4 3 -2 6 -13 5 -11 0 -14 -3 -6 -6z"/>
<path d="M2715 4920 c3 -30 10 -111 16 -180 15 -155 6 -593 -16 -805 -14 -136
-55 -423 -71 -485 -4 -16 -3 -21 3 -12 7 9 18 1 44 -30 19 -24 33 -46 32 -50
-2 -4 6 -12 16 -17 10 -6 24 -25 31 -43 6 -18 16 -42 20 -53 4 -11 15 -38 23
-60 26 -67 79 -216 81 -229 1 -6 4 -15 7 -21 4 -5 5 -18 3 -28 -1 -10 11 -44
27 -75 33 -65 35 -88 13 -161 -8 -29 -13 -55 -11 -57 3 -3 13 27 24 66 l19 71
33 -51 c18 -28 30 -57 27 -66 -3 -8 -1 -12 4 -9 5 3 21 -12 35 -34 19 -31 25
-54 25 -95 0 -48 -8 -72 -65 -182 -35 -70 -62 -131 -59 -136 3 -5 -10 -46 -30
-92 -35 -81 -61 -174 -52 -183 3 -3 8 12 12 33 9 51 46 128 62 132 6 1 13 -2
13 -8 1 -5 2 -13 4 -17 1 -5 5 -26 10 -48 4 -22 11 -42 15 -45 5 -3 10 -16 11
-30 2 -14 10 -31 17 -38 6 -7 12 -26 12 -42 0 -16 4 -40 10 -54 8 -21 7 -24
-8 -20 -13 5 -14 4 -4 -4 8 -5 19 -20 26 -33 13 -27 44 -36 130 -38 70 -1 128
-17 156 -43 13 -12 20 -14 20 -6 0 34 -54 217 -96 328 -41 109 -47 135 -48
205 -1 44 3 97 7 119 l8 39 40 -39 c38 -37 39 -40 34 -93 l-4 -56 9 48 c5 27
10 51 12 52 6 6 98 -57 98 -67 0 -5 5 -6 10 -3 10 6 146 -80 231 -147 20 -15
41 -28 46 -28 15 0 54 131 60 203 l6 67 -30 0 c-22 0 -36 7 -47 25 -16 24 -16
25 9 25 31 0 31 1 1 48 -33 52 -140 145 -181 157 -37 11 -82 51 -63 57 13 5
-251 247 -339 312 -35 25 -63 48 -63 51 0 6 41 -19 79 -47 19 -15 26 -16 34
-6 6 10 7 8 4 -4 -4 -11 4 -22 21 -34 15 -9 40 -28 56 -43 l29 -26 -7 34 c-3
18 -7 54 -7 80 l-1 46 -8 -38 c-11 -60 -27 -68 -59 -28 -14 18 -37 45 -49 60
l-24 26 23 -35 c22 -34 21 -34 -24 9 -26 25 -54 58 -62 75 -9 17 -31 56 -50
86 -36 58 -43 76 -23 64 7 -4 8 -3 4 5 -4 6 -11 9 -16 6 -8 -5 -68 63 -83 94
-4 9 -20 34 -36 56 -29 40 -25 59 6 33 15 -12 15 -10 0 19 -10 18 -17 48 -17
67 0 19 -7 70 -15 113 -8 43 -15 79 -15 80 0 2 11 10 25 19 24 16 26 15 43 -2
19 -21 37 -33 96 -65 54 -29 67 -47 131 -174 30 -60 55 -105 55 -100 0 6 -23
56 -50 113 -58 121 -65 119 110 32 l115 -57 9 -44 c18 -88 -15 -388 -59 -536
-12 -42 -12 -43 26 -78 22 -20 39 -33 39 -29 0 4 -14 19 -31 33 l-30 26 21 95
c11 52 25 127 31 165 16 107 27 336 18 367 -10 38 -2 37 150 -14 96 -31 137
-50 173 -80 57 -48 128 -145 171 -236 28 -58 32 -79 35 -162 3 -91 1 -97 -28
-148 -53 -91 -152 -141 -311 -157 l-73 -7 26 -22 c14 -11 55 -47 91 -79 l66
-59 78 22 c173 47 340 164 404 282 31 58 34 69 33 148 -1 71 -6 98 -33 164
-18 44 -43 87 -57 98 -13 11 -23 26 -22 33 4 20 -73 110 -82 95 -5 -8 -28 5
-73 38 -61 46 -119 71 -257 109 -29 9 -24 9 30 5 67 -5 105 -20 200 -79 35
-21 45 -25 27 -10 -16 13 -65 44 -110 68 -99 53 -102 54 -93 40 5 -7 1 -9 -8
-5 -9 3 -14 10 -11 14 7 11 -24 22 -38 13 -7 -3 -9 -2 -4 2 4 5 -66 46 -155
92 -90 47 -189 101 -222 120 -65 40 -66 35 5 86 13 10 17 15 9 11 -8 -4 -29
-17 -46 -30 -28 -21 -33 -21 -52 -8 -16 11 -20 22 -17 47 l5 32 -10 -32 c-10
-31 -10 -31 -40 -16 -28 13 -30 19 -32 71 l-1 57 -6 -52 -6 -52 -57 127 c-55
120 -58 132 -58 205 l0 77 52 26 c40 20 48 28 36 35 -10 6 -18 31 -22 77 -4
38 -11 82 -16 98 -10 28 -10 27 -5 -6 3 -19 8 -69 12 -112 l6 -76 -31 -16
c-17 -9 -34 -16 -37 -16 -4 0 -4 48 0 108 l6 107 -20 -58 c-11 -32 -22 -62
-26 -65 -3 -4 -4 45 -1 108 l5 115 -10 -95 c-12 -122 -25 -189 -31 -170 -26
75 -28 98 -24 256 4 126 3 147 -3 84 -8 -76 -43 -200 -58 -200 -3 0 -3 35 0
78 l6 77 -18 -35 c-11 -19 -28 -44 -40 -54 -21 -19 -21 -19 -21 11 0 16 7 38
15 49 8 11 14 41 15 69 0 32 -3 45 -9 36 -5 -7 -6 -30 -4 -51 3 -21 1 -40 -4
-43 -5 -3 -10 25 -11 68 -1 67 1 76 21 92 22 16 22 21 15 92 -10 97 -15 117
-17 64 -1 -33 -4 -41 -16 -37 -8 3 -14 9 -13 12 1 4 -2 14 -5 22 -4 8 -11 38
-16 65 l-10 50 4 -55z m65 -156 c0 -19 -4 -33 -9 -30 -5 4 -8 14 -6 24 2 9 4
23 4 30 2 28 11 9 11 -24z m-33 -26 c-3 -7 -5 -2 -5 12 0 14 2 19 5 13 2 -7 2
-19 0 -25z m38 -333 c-10 -36 -21 -65 -24 -65 -13 0 2 116 17 133 24 27 26 5
7 -68z m15 -30 c0 -14 -4 -25 -9 -25 -4 0 -6 11 -3 25 2 14 6 25 8 25 2 0 4
-11 4 -25z m70 -39 c14 -18 42 -118 30 -111 -4 3 -17 25 -28 49 -17 35 -28 46
-54 52 -29 6 -30 8 -13 15 31 12 51 10 65 -5z m54 -171 c5 -29 4 -36 -3 -25
-6 8 -11 28 -11 44 0 39 6 31 14 -19z m54 -40 c1 -44 -1 -98 -6 -120 -8 -35
-10 -28 -17 68 -4 59 -11 110 -16 113 -18 10 -9 25 14 22 20 -3 22 -9 25 -83z
m-61 -47 c-3 -7 -5 -2 -5 12 0 14 2 19 5 13 2 -7 2 -19 0 -25z m102 -114 c12
-26 31 -69 42 -96 l19 -50 -52 31 c-43 24 -53 35 -52 55 3 132 7 137 43 60z
m-173 -411 c20 -102 18 -133 -6 -133 -17 0 -19 3 -10 19 13 26 13 54 -2 86
-11 24 -13 24 -34 10 -21 -14 -23 -13 -21 8 2 24 46 91 55 83 3 -3 11 -36 18
-73z m1213 -323 c17 -22 30 -40 29 -40 -2 0 -22 18 -43 40 -21 22 -34 40 -29
40 6 0 25 -18 43 -40z"/>
<path d="M2810 3570 c0 -5 5 -10 10 -10 6 0 10 5 10 10 0 6 -4 10 -10 10 -5 0
-10 -4 -10 -10z"/>
<path d="M3158 4963 c7 -3 16 -2 19 1 4 3 -2 6 -13 5 -11 0 -14 -3 -6 -6z"/>
<path d="M3208 4953 c7 -3 16 -2 19 1 4 3 -2 6 -13 5 -11 0 -14 -3 -6 -6z"/>
<path d="M2830 4830 c0 -65 -3 -90 -12 -90 -9 0 -10 -3 -2 -8 6 -4 14 -14 17
-22 3 -8 6 36 6 98 1 61 -1 112 -4 112 -3 0 -5 -40 -5 -90z"/>
<path d="M3408 4903 c7 -3 16 -2 19 1 4 3 -2 6 -13 5 -11 0 -14 -3 -6 -6z"/>
<path d="M3488 4883 c7 -3 16 -2 19 1 4 3 -2 6 -13 5 -11 0 -14 -3 -6 -6z"/>
<path d="M981 4854 c0 -11 3 -14 6 -6 3 7 2 16 -1 19 -3 4 -6 -2 -5 -13z"/>
<path d="M2450 4862 c0 -11 27 -42 37 -42 3 0 -2 10 -13 23 -10 12 -20 24 -21
26 -2 2 -3 -1 -3 -7z"/>
<path d="M3578 4863 c7 -3 16 -2 19 1 4 3 -2 6 -13 5 -11 0 -14 -3 -6 -6z"/>
<path d="M1573 4785 c0 -27 2 -38 4 -22 2 15 2 37 0 50 -2 12 -4 0 -4 -28z"/>
<path d="M991 4804 c0 -11 3 -14 6 -6 3 7 2 16 -1 19 -3 4 -6 -2 -5 -13z"/>
<path d="M1871 4804 c0 -11 3 -14 6 -6 3 7 2 16 -1 19 -3 4 -6 -2 -5 -13z"/>
<path d="M2244 4705 c0 -60 1 -84 3 -52 2 32 2 81 0 110 -2 29 -3 3 -3 -58z"/>
<path d="M2285 4726 c-5 -47 -3 -81 4 -92 8 -15 10 2 11 74 0 50 -2 92 -4 92
-2 0 -7 -33 -11 -74z"/>
<path d="M1001 4770 c0 -8 4 -24 9 -35 5 -13 9 -14 9 -5 0 8 -4 24 -9 35 -5
13 -9 14 -9 5z"/>
<path d="M1885 4756 c3 -15 9 -42 12 -60 3 -17 12 -39 19 -50 7 -10 11 -23 8
-30 -2 -6 5 -17 16 -24 20 -12 21 -12 9 10 -7 13 -26 59 -41 103 -16 44 -26
67 -23 51z"/>
<path d="M1981 4766 c-1 -18 38 -188 44 -194 6 -6 -2 72 -8 88 -4 8 -13 40
-21 70 -8 30 -15 47 -15 36z"/>
<path d="M2975 4695 c3 -22 5 -64 5 -92 0 -39 4 -53 14 -53 8 0 17 -6 20 -12
7 -15 0 17 -26 122 -10 41 -16 57 -13 35z"/>
<path d="M2106 4680 c7 -48 10 -57 20 -48 3 4 -2 26 -10 50 l-16 43 6 -45z"/>
<path d="M1021 4694 c0 -11 3 -14 6 -6 3 7 2 16 -1 19 -3 4 -6 -2 -5 -13z"/>
<path d="M2843 4655 c0 -22 2 -30 4 -17 2 12 2 30 0 40 -3 9 -5 -1 -4 -23z"/>
<path d="M1031 4654 c0 -11 3 -14 6 -6 3 7 2 16 -1 19 -3 4 -6 -2 -5 -13z"/>
<path d="M3491 4624 c0 -11 3 -14 6 -6 3 7 2 16 -1 19 -3 4 -6 -2 -5 -13z"/>
<path d="M3410 4629 c0 -4 7 -22 15 -40 8 -19 14 -27 14 -19 0 14 -28 72 -29
59z"/>
<path d="M2120 4604 c0 -8 5 -12 10 -9 6 3 10 10 10 16 0 5 -4 9 -10 9 -5 0
-10 -7 -10 -16z"/>
<path d="M2831 4594 c0 -11 3 -14 6 -6 3 7 2 16 -1 19 -3 4 -6 -2 -5 -13z"/>
<path d="M1050 4595 c0 -5 5 -17 10 -25 5 -8 10 -10 10 -5 0 6 -5 17 -10 25
-5 8 -10 11 -10 5z"/>
<path d="M3275 4580 c10 -11 20 -20 23 -20 3 0 -3 9 -13 20 -10 11 -20 20 -23
20 -3 0 3 -9 13 -20z"/>
<path d="M4111 4584 c0 -11 3 -14 6 -6 3 7 2 16 -1 19 -3 4 -6 -2 -5 -13z"/>
<path d="M2140 4585 c0 -5 5 -17 10 -25 5 -8 10 -10 10 -5 0 6 -5 17 -10 25
-5 8 -10 11 -10 5z"/>
<path d="M3481 4552 c-1 -41 -26 -96 -40 -88 -3 2 -15 -5 -26 -16 -20 -20 -20
-20 20 -2 22 11 54 27 70 37 27 17 20 17 -25 -1 -8 -3 8 21 35 53 28 33 43 55
35 50 -8 -5 -24 -20 -35 -34 l-20 -26 -6 35 -6 35 -2 -43z"/>
<path d="M2400 4556 c0 -2 8 -10 18 -17 15 -13 16 -12 3 4 -13 16 -21 21 -21
13z"/>
<path d="M3335 4530 c10 -11 20 -20 23 -20 3 0 -3 9 -13 20 -10 11 -20 20 -23
20 -3 0 3 -9 13 -20z"/>
<path d="M3440 4545 c0 -5 5 -17 10 -25 5 -8 10 -10 10 -5 0 6 -5 17 -10 25
-5 8 -10 11 -10 5z"/>
<path d="M2160 4530 c0 -5 5 -10 11 -10 5 0 7 5 4 10 -3 6 -8 10 -11 10 -2 0
-4 -4 -4 -10z"/>
<path d="M1683 4475 c0 -33 2 -45 4 -27 2 18 2 45 0 60 -2 15 -4 0 -4 -33z"/>
<path d="M1080 4515 c0 -5 5 -17 10 -25 5 -8 10 -10 10 -5 0 6 -5 17 -10 25
-5 8 -10 11 -10 5z"/>
<path d="M3022 4500 c0 -14 2 -19 5 -12 2 6 2 18 0 25 -3 6 -5 1 -5 -13z"/>
<path d="M3190 4500 c14 -4 34 -8 45 -8 16 0 15 2 -5 8 -14 4 -34 8 -45 8 -16
0 -15 -2 5 -8z"/>
<path d="M3072 4480 c0 -14 2 -19 5 -12 2 6 2 18 0 25 -3 6 -5 1 -5 -13z"/>
<path d="M3268 4483 c6 -2 18 -2 25 0 6 3 1 5 -13 5 -14 0 -19 -2 -12 -5z"/>
<path d="M3318 4473 c7 -3 16 -2 19 1 4 3 -2 6 -13 5 -11 0 -14 -3 -6 -6z"/>
<path d="M1101 4465 c0 -5 6 -21 14 -35 8 -14 14 -20 14 -15 0 6 -6 21 -14 35
-8 14 -14 21 -14 15z"/>
<path d="M3368 4463 c6 -2 18 -2 25 0 6 3 1 5 -13 5 -14 0 -19 -2 -12 -5z"/>
<path d="M3082 4430 c0 -14 2 -19 5 -12 2 6 2 18 0 25 -3 6 -5 1 -5 -13z"/>
<path d="M2032 4414 c-7 -8 -8 -14 -3 -14 10 0 25 19 20 25 -2 1 -10 -3 -17
-11z"/>
<path d="M1982 4396 c7 -8 17 -12 22 -9 4 3 2 9 -5 14 -22 13 -31 11 -17 -5z"/>
<path d="M1130 4391 c0 -6 4 -13 10 -16 6 -3 7 1 4 9 -7 18 -14 21 -14 7z"/>
<path d="M3092 4370 c0 -14 2 -19 5 -12 2 6 2 18 0 25 -3 6 -5 1 -5 -13z"/>
<path d="M3921 4247 c-52 -56 -75 -84 -52 -62 63 58 161 166 149 165 -2 -1
-46 -47 -97 -103z"/>
<path d="M3102 4310 c0 -19 2 -27 5 -17 2 9 2 25 0 35 -3 9 -5 1 -5 -18z"/>
<path d="M1170 4301 c0 -6 4 -13 10 -16 6 -3 7 1 4 9 -7 18 -14 21 -14 7z"/>
<path d="M1200 4241 c0 -6 4 -13 10 -16 6 -3 7 1 4 9 -7 18 -14 21 -14 7z"/>
<path d="M1220 4201 c0 -6 4 -13 10 -16 6 -3 7 1 4 9 -7 18 -14 21 -14 7z"/>
<path d="M1256 4137 c3 -10 9 -15 12 -12 3 3 0 11 -7 18 -10 9 -11 8 -5 -6z"/>
<path d="M3789 4123 l-24 -28 28 24 c25 23 32 31 24 31 -2 0 -14 -12 -28 -27z"/>
<path d="M1285 4080 c9 -16 18 -30 21 -30 2 0 -2 14 -11 30 -9 17 -18 30 -21
30 -2 0 2 -13 11 -30z"/>
<path d="M3734 4078 l-19 -23 23 19 c21 18 27 26 19 26 -2 0 -12 -10 -23 -22z"/>
<path d="M1320 4020 c6 -11 13 -20 16 -20 2 0 0 9 -6 20 -6 11 -13 20 -16 20
-2 0 0 -9 6 -20z"/>
<path d="M1350 3970 c6 -11 13 -20 16 -20 2 0 0 9 -6 20 -6 11 -13 20 -16 20
-2 0 0 -9 6 -20z"/>
<path d="M3404 3844 c-18 -14 -18 -15 4 -4 12 6 22 13 22 15 0 8 -5 6 -26 -11z"/>
<path d="M1450 3824 c0 -7 9 -22 21 -35 16 -19 18 -20 10 -4 -17 34 -31 51
-31 39z"/>
<path d="M1508 3729 c12 -20 22 -44 22 -53 0 -9 5 -15 12 -13 7 1 13 -5 14
-13 0 -8 2 -20 2 -26 1 -6 34 -51 72 -100 39 -49 70 -91 70 -95 0 -18 -140
-164 -207 -215 -79 -62 -223 -158 -278 -187 -16 -9 -26 -16 -21 -17 10 0 116
57 191 103 80 50 143 102 241 198 l91 89 25 -32 c14 -18 34 -62 46 -97 21 -62
21 -65 4 -84 -29 -32 -208 -113 -377 -169 -147 -50 -164 -53 -205 -44 -25 5
-47 12 -50 15 -3 3 -14 6 -25 7 -11 1 -65 7 -119 13 -160 20 -532 14 -497 -9
7 -4 -5 -12 -27 -18 -80 -24 -282 -147 -282 -171 0 -5 6 -12 13 -14 10 -4 10
-6 0 -6 -7 -1 -13 -14 -13 -30 0 -23 5 -30 23 -33 21 -3 22 -7 22 -90 0 -49 4
-83 9 -78 4 4 8 56 7 114 l-2 106 52 -19 c28 -11 54 -22 57 -26 3 -3 -10 -22
-29 -43 l-34 -37 38 34 c28 27 40 32 49 23 9 -9 7 -16 -6 -31 -12 -13 -14 -21
-6 -26 6 -4 31 -32 55 -62 l43 -56 -53 -67 c-76 -95 -165 -231 -216 -330 -24
-47 -46 -87 -49 -90 -3 -3 -7 -16 -9 -30 -1 -14 -7 -33 -13 -43 -5 -10 -8 -20
-6 -23 2 -2 33 54 68 124 145 288 294 472 446 550 100 51 243 98 355 116 77
13 94 13 175 -3 49 -10 106 -23 127 -30 l39 -13 -184 -70 c-100 -38 -191 -72
-200 -76 -9 -4 79 -6 195 -6 203 2 217 3 323 32 322 88 369 104 423 143 30 22
48 39 40 39 -8 0 -20 -5 -27 -12 -9 -9 -9 -4 -2 23 6 18 10 35 10 37 0 2 24
29 53 59 40 44 45 52 20 34 l-33 -22 0 23 c0 13 -12 45 -26 72 -65 121 -144
334 -144 386 0 15 6 43 14 61 7 19 17 45 20 59 6 22 6 23 -5 6 -6 -10 -19 -41
-29 -69 l-18 -50 -48 68 c-90 126 -226 310 -237 320 -5 6 0 -6 11 -26z m333
-631 c25 -84 20 -99 -52 -183 l-43 -50 43 40 c24 22 51 53 61 68 l18 28 11
-32 c21 -60 14 -81 -42 -125 -29 -22 -68 -50 -87 -62 l-36 -21 -33 21 -33 21
31 19 c42 27 39 35 -4 10 l-34 -21 -103 48 c-57 27 -136 59 -175 72 -40 13
-73 26 -73 29 0 3 59 23 131 44 167 50 332 119 374 157 18 17 24 8 46 -63z
m69 -262 c0 -37 -27 -64 -97 -100 -31 -15 -35 -15 -58 0 l-25 16 74 50 c42 27
78 53 81 58 13 21 25 9 25 -24z m-440 -181 c0 -2 -26 -11 -57 -20 -32 -8 -99
-29 -149 -46 -75 -24 -105 -29 -165 -27 l-74 3 180 61 c177 60 181 60 223 46
23 -7 42 -15 42 -17z m63 -35 c-14 -13 -166 -50 -223 -55 -65 -5 -66 -6 75 44
88 31 115 36 133 28 12 -6 19 -14 15 -17z"/>
<path d="M1475 3490 c-38 -38 -65 -70 -59 -70 10 0 41 31 103 103 51 58 32 44
-44 -33z"/>
<path d="M2611 3375 c-1 -27 -6 -70 -12 -94 -15 -69 -3 -59 14 11 11 43 13 74
7 98 -8 34 -8 34 -9 -15z"/>
<path d="M2631 3394 c0 -11 3 -14 6 -6 3 7 2 16 -1 19 -3 4 -6 -2 -5 -13z"/>
<path d="M1284 3304 l-39 -35 43 32 c38 30 48 39 39 39 -2 0 -21 -16 -43 -36z"/>
<path d="M3408 3155 c3 -93 6 -172 8 -174 8 -8 3 265 -5 304 -5 23 -6 -33 -3
-130z"/>
<path d="M3970 3316 c0 -2 8 -10 18 -17 15 -13 16 -12 3 4 -13 16 -21 21 -21
13z"/>
<path d="M718 3303 c7 -3 16 -2 19 1 4 3 -2 6 -13 5 -11 0 -14 -3 -6 -6z"/>
<path d="M2423 3245 c0 -38 2 -53 4 -32 2 20 2 52 0 70 -2 17 -4 1 -4 -38z"/>
<path d="M563 3283 c9 -2 23 -2 30 0 6 3 -1 5 -18 5 -16 0 -22 -2 -12 -5z"/>
<path d="M785 3280 c-13 -5 -14 -9 -5 -9 8 0 24 4 35 9 13 5 14 9 5 9 -8 0
-24 -4 -35 -9z"/>
<path d="M935 3280 c-13 -5 -14 -9 -5 -9 8 0 24 4 35 9 13 5 14 9 5 9 -8 0
-24 -4 -35 -9z"/>
<path d="M508 3273 c6 -2 18 -2 25 0 6 3 1 5 -13 5 -14 0 -19 -2 -12 -5z"/>
<path d="M710 3260 c-11 -8 -7 -9 15 -4 37 8 45 14 19 14 -10 0 -26 -5 -34
-10z"/>
<path d="M888 3263 c7 -3 16 -2 19 1 4 3 -2 6 -13 5 -11 0 -14 -3 -6 -6z"/>
<path d="M3206 3245 c13 -53 43 -139 43 -127 1 17 -39 152 -45 152 -2 0 -2
-11 2 -25z"/>
<path d="M638 3253 c6 -2 18 -2 25 0 6 3 1 5 -13 5 -14 0 -19 -2 -12 -5z"/>
<path d="M715 3210 c-157 -59 -251 -117 -345 -211 -27 -27 -54 -49 -61 -49
-15 0 -81 -32 -76 -36 2 -3 24 5 49 16 25 11 86 31 134 44 49 14 80 25 69 25
-11 1 -42 -6 -69 -14 -27 -8 -51 -14 -52 -12 -2 2 18 24 44 50 63 62 152 114
220 128 30 6 50 14 43 18 -16 11 120 61 149 55 21 -4 22 -3 5 4 l-20 9 20 5
c11 3 13 6 5 6 -8 0 -60 -17 -115 -38z"/>
<path d="M335 3230 c-3 -6 1 -7 9 -4 18 7 21 14 7 14 -6 0 -13 -4 -16 -10z"/>
<path d="M508 3233 c7 -3 16 -2 19 1 4 3 -2 6 -13 5 -11 0 -14 -3 -6 -6z"/>
<path d="M620 3230 c-8 -5 -10 -10 -5 -10 6 0 17 5 25 10 8 5 11 10 5 10 -5 0
-17 -5 -25 -10z"/>
<path d="M878 3233 c6 -2 18 -2 25 0 6 3 1 5 -13 5 -14 0 -19 -2 -12 -5z"/>
<path d="M468 3223 c7 -3 16 -2 19 1 4 3 -2 6 -13 5 -11 0 -14 -3 -6 -6z"/>
<path d="M275 3200 c-3 -6 1 -7 9 -4 18 7 21 14 7 14 -6 0 -13 -4 -16 -10z"/>
<path d="M1129 3189 l-24 -20 28 17 c15 9 27 18 27 20 0 8 -8 4 -31 -17z"/>
<path d="M4100 3176 c0 -2 8 -10 18 -17 15 -13 16 -12 3 4 -13 16 -21 21 -21
13z"/>
<path d="M194 3138 l-29 -33 33 29 c30 28 37 36 29 36 -2 0 -16 -15 -33 -32z"/>
<path d="M698 3163 c7 -3 16 -2 19 1 4 3 -2 6 -13 5 -11 0 -14 -3 -6 -6z"/>
<path d="M2398 3083 c-9 -48 -15 -89 -14 -91 7 -6 38 137 34 158 -2 12 -11
-18 -20 -67z"/>
<path d="M3050 3101 c5 -11 15 -23 21 -27 6 -3 3 5 -6 20 -20 30 -30 35 -15 7z"/>
<path d="M149 3083 c-13 -16 -12 -17 4 -4 9 7 17 15 17 17 0 8 -8 3 -21 -13z"/>
<path d="M3251 3084 c0 -11 3 -14 6 -6 3 7 2 16 -1 19 -3 4 -6 -2 -5 -13z"/>
<path d="M3090 3041 c5 -11 15 -23 21 -27 6 -3 3 5 -6 20 -20 30 -30 35 -15 7z"/>
<path d="M3262 3035 c0 -16 2 -22 5 -12 2 9 2 23 0 30 -3 6 -5 -1 -5 -18z"/>
<path d="M121 3014 c0 -11 3 -14 6 -6 3 7 2 16 -1 19 -3 4 -6 -2 -5 -13z"/>
<path d="M3120 2996 c0 -2 8 -10 18 -17 15 -13 16 -12 3 4 -13 16 -21 21 -21
13z"/>
<path d="M3272 2975 c0 -16 2 -22 5 -12 2 9 2 23 0 30 -3 6 -5 -1 -5 -18z"/>
<path d="M111 2980 c0 -8 4 -24 9 -35 l9 -20 0 20 c0 11 -4 27 -9 35 -9 13
-10 13 -9 0z"/>
<path d="M174 2884 c-18 -14 -18 -15 4 -4 12 6 22 13 22 15 0 8 -5 6 -26 -11z"/>
<path d="M102 2834 c-49 -42 -52 -54 -14 -53 27 1 27 1 3 8 -24 6 -23 7 20 44
24 20 41 37 38 37 -3 0 -24 -16 -47 -36z"/>
<path d="M3371 2764 c0 -11 3 -14 6 -6 3 7 2 16 -1 19 -3 4 -6 -2 -5 -13z"/>
<path d="M1962 2709 c-30 -5 -61 -14 -70 -20 -15 -9 -14 -9 3 -5 11 3 50 10
88 17 37 6 67 13 67 15 0 5 -25 3 -88 -7z"/>
<path d="M3430 2665 c19 -19 36 -35 39 -35 3 0 -10 16 -29 35 -19 19 -36 35
-39 35 -3 0 10 -16 29 -35z"/>
<path d="M2140 2585 c0 -5 5 -17 10 -25 5 -8 10 -10 10 -5 0 6 -5 17 -10 25
-5 8 -10 11 -10 5z"/>
<path d="M860 2530 c-17 -6 -9 -7 25 -3 28 3 52 7 54 9 8 7 -54 2 -79 -6z"/>
<path d="M1403 2533 c15 -2 37 -2 50 0 12 2 0 4 -28 4 -27 0 -38 -2 -22 -4z"/>
<path d="M2886 2513 c-6 -14 -5 -15 5 -6 7 7 10 15 7 18 -3 3 -9 -2 -12 -12z"/>
<path d="M3746 2390 c6 -8 16 -24 22 -35 6 -11 12 -15 12 -8 0 7 -10 22 -22
35 -13 13 -18 17 -12 8z"/>
<path d="M171 2344 c0 -11 3 -14 6 -6 3 7 2 16 -1 19 -3 4 -6 -2 -5 -13z"/>
<path d="M161 2304 c0 -11 3 -14 6 -6 3 7 2 16 -1 19 -3 4 -6 -2 -5 -13z"/>
<path d="M2766 2225 c-9 -26 -7 -32 5 -12 6 10 9 21 6 23 -2 3 -7 -2 -11 -11z"/>
<path d="M152 2205 c0 -16 2 -22 5 -12 2 9 2 23 0 30 -3 6 -5 -1 -5 -18z"/>
<path d="M463 2128 c-31 -59 -63 -131 -60 -134 1 -2 21 35 44 81 40 82 52 119
16 53z"/>
<path d="M2741 2144 c0 -11 3 -14 6 -6 3 7 2 16 -1 19 -3 4 -6 -2 -5 -13z"/>
<path d="M153 2105 c0 -27 2 -38 4 -22 2 15 2 37 0 50 -2 12 -4 0 -4 -28z"/>
<path d="M2696 1995 c-9 -26 -7 -32 5 -12 6 10 9 21 6 23 -2 3 -7 -2 -11 -11z"/>
<path d="M370 1910 c-12 -40 -20 -74 -17 -76 2 -2 13 28 25 68 11 40 19 74 17
76 -2 2 -13 -28 -25 -68z"/>
<path d="M3580 1960 c6 -11 13 -20 16 -20 2 0 0 9 -6 20 -6 11 -13 20 -16 20
-2 0 0 -9 6 -20z"/>
<path d="M231 1929 c-5 -13 -21 -53 -35 -88 -20 -45 -24 -67 -17 -74 8 -8 11
-4 11 14 0 13 14 55 30 93 16 38 28 72 25 74 -2 3 -9 -6 -14 -19z"/>
<path d="M2881 1878 c2 -2 22 -19 44 -38 l40 -35 -34 38 c-19 20 -39 37 -45
37 -5 0 -7 -1 -5 -2z"/>
<path d="M531 1799 c-11 -25 -23 -65 -25 -89 l-6 -45 14 45 c7 25 21 63 30 84
9 22 14 41 11 44 -3 3 -14 -15 -24 -39z"/>
<path d="M335 1775 c-3 -26 -4 -49 -2 -51 3 -3 8 16 12 41 3 26 4 49 2 51 -3
3 -8 -16 -12 -41z"/>
<path d="M480 1789 c-7 -11 -10 -23 -7 -25 2 -2 9 7 15 21 14 30 7 33 -8 4z"/>
<path d="M2980 1775 c13 -14 26 -25 28 -25 3 0 -5 11 -18 25 -13 14 -26 25
-28 25 -3 0 5 -11 18 -25z"/>
<path d="M173 1665 c0 -38 2 -53 4 -32 2 20 2 52 0 70 -2 17 -4 1 -4 -38z"/>
<path d="M323 1610 c0 -78 1 -92 6 -52 4 28 4 76 0 105 -5 39 -6 25 -6 -53z"/>
<path d="M494 1579 c2 -72 7 -96 31 -143 15 -31 29 -55 30 -54 1 2 0 21 -3 43
-4 31 -6 36 -12 20 -6 -17 -9 -14 -20 20 -7 22 -16 76 -20 120 l-8 80 2 -86z"/>
<path d="M566 1645 c-9 -26 -7 -32 5 -12 6 10 9 21 6 23 -2 3 -7 -2 -11 -11z"/>
<path d="M423 1595 c0 -27 2 -38 4 -22 2 15 2 37 0 50 -2 12 -4 0 -4 -28z"/>
<path d="M121 1604 c0 -11 3 -14 6 -6 3 7 2 16 -1 19 -3 4 -6 -2 -5 -13z"/>
<path d="M3381 1604 c0 -11 3 -14 6 -6 3 7 2 16 -1 19 -3 4 -6 -2 -5 -13z"/>
<path d="M551 1594 c0 -11 3 -14 6 -6 3 7 2 16 -1 19 -3 4 -6 -2 -5 -13z"/>
<path d="M113 1520 c0 -30 2 -43 4 -27 2 15 2 39 0 55 -2 15 -4 2 -4 -28z"/>
<path d="M542 1540 c0 -19 2 -27 5 -17 2 9 2 25 0 35 -3 9 -5 1 -5 -18z"/>
<path d="M3391 1524 c0 -11 3 -14 6 -6 3 7 2 16 -1 19 -3 4 -6 -2 -5 -13z"/>
<path d="M430 1514 c0 -6 7 -19 16 -30 14 -18 14 -18 3 6 -14 31 -19 36 -19
24z"/>
<path d="M191 1494 c0 -11 3 -14 6 -6 3 7 2 16 -1 19 -3 4 -6 -2 -5 -13z"/>
<path d="M71 1484 c0 -11 3 -14 6 -6 3 7 2 16 -1 19 -3 4 -6 -2 -5 -13z"/>
<path d="M331 1434 c0 -11 3 -14 6 -6 3 7 2 16 -1 19 -3 4 -6 -2 -5 -13z"/>
<path d="M210 1435 c0 -5 5 -17 10 -25 5 -8 10 -10 10 -5 0 6 -5 17 -10 25 -5
8 -10 11 -10 5z"/>
<path d="M100 1396 c0 -14 58 -101 82 -122 20 -18 20 -17 -2 16 -13 19 -28 37
-32 38 -5 2 -6 8 -2 13 3 5 1 9 -5 9 -6 0 -17 12 -25 28 -8 15 -15 23 -16 18z"/>
<path d="M236 1377 c3 -10 9 -15 12 -12 3 3 0 11 -7 18 -10 9 -11 8 -5 -6z"/>
<path d="M3410 1275 c0 -49 3 -85 7 -82 7 7 4 159 -3 166 -2 2 -4 -35 -4 -84z"/>
<path d="M260 1330 c6 -11 13 -20 16 -20 2 0 0 9 -6 20 -6 11 -13 20 -16 20
-2 0 0 -9 6 -20z"/>
<path d="M376 1317 c3 -10 9 -15 12 -12 3 3 0 11 -7 18 -10 9 -11 8 -5 -6z"/>
<path d="M307 1265 c17 -22 48 -56 69 -75 25 -23 20 -14 -15 25 -75 83 -90 97
-54 50z"/>
<path d="M416 1228 c7 -12 64 -40 73 -36 4 2 -12 12 -35 24 -24 11 -41 17 -38
12z"/>
<path d="M863 1190 c0 -25 2 -35 4 -22 2 12 2 32 0 45 -2 12 -4 2 -4 -23z"/>
<path d="M520 1190 c-12 -8 -9 -10 13 -10 16 0 26 4 22 10 -8 12 -16 12 -35 0z"/>
<path d="M543 1085 c0 -8 4 -12 9 -9 5 3 6 10 3 15 -9 13 -12 11 -12 -6z"/>
<path d="M564 1067 c-4 -6 -4 -9 1 -5 4 4 14 3 22 -4 7 -6 15 -9 18 -7 2 3 -4
10 -15 17 -15 9 -21 9 -26 -1z"/>
<path d="M863 850 c0 -25 2 -35 4 -22 2 12 2 32 0 45 -2 12 -4 2 -4 -23z"/>
<path d="M1852 745 c0 -16 2 -22 5 -12 2 9 2 23 0 30 -3 6 -5 -1 -5 -18z"/>
<path d="M871 744 c0 -11 3 -14 6 -6 3 7 2 16 -1 19 -3 4 -6 -2 -5 -13z"/>
<path d="M882 640 c0 -19 2 -27 5 -17 2 9 2 25 0 35 -3 9 -5 1 -5 -18z"/>
<path d="M1842 640 c0 -14 2 -19 5 -12 2 6 2 18 0 25 -3 6 -5 1 -5 -13z"/>
<path d="M2981 634 c0 -11 3 -14 6 -6 3 7 2 16 -1 19 -3 4 -6 -2 -5 -13z"/>
<path d="M2991 594 c0 -11 3 -14 6 -6 3 7 2 16 -1 19 -3 4 -6 -2 -5 -13z"/>
<path d="M892 575 c0 -16 2 -22 5 -12 2 9 2 23 0 30 -3 6 -5 -1 -5 -18z"/>
<path d="M1832 565 c0 -16 2 -22 5 -12 2 9 2 23 0 30 -3 6 -5 -1 -5 -18z"/>
<path d="M3002 555 c0 -11 4 -31 8 -45 6 -20 8 -21 8 -5 0 11 -4 31 -8 45 -6
20 -8 21 -8 5z"/>
<path d="M902 505 c0 -16 2 -22 5 -12 2 9 2 23 0 30 -3 6 -5 -1 -5 -18z"/>
<path d="M1822 510 c0 -14 2 -19 5 -12 2 6 2 18 0 25 -3 6 -5 1 -5 -13z"/>
<path d="M3022 450 c0 -14 2 -19 5 -12 2 6 2 18 0 25 -3 6 -5 1 -5 -13z"/>
<path d="M911 434 c0 -11 3 -14 6 -6 3 7 2 16 -1 19 -3 4 -6 -2 -5 -13z"/>
<path d="M3032 395 c0 -16 2 -22 5 -12 2 9 2 23 0 30 -3 6 -5 -1 -5 -18z"/>
<path d="M1802 380 c0 -14 2 -19 5 -12 2 6 2 18 0 25 -3 6 -5 1 -5 -13z"/>
<path d="M3042 325 c0 -16 2 -22 5 -12 2 9 2 23 0 30 -3 6 -5 -1 -5 -18z"/>
<path d="M931 314 c0 -11 3 -14 6 -6 3 7 2 16 -1 19 -3 4 -6 -2 -5 -13z"/>
<path d="M942 270 c0 -14 2 -19 5 -12 2 6 2 18 0 25 -3 6 -5 1 -5 -13z"/>
<path d="M1781 264 c0 -11 3 -14 6 -6 3 7 2 16 -1 19 -3 4 -6 -2 -5 -13z"/>
<path d="M3052 250 c0 -19 2 -27 5 -17 2 9 2 25 0 35 -3 9 -5 1 -5 -18z"/>
<path d="M3062 180 c0 -19 2 -27 5 -17 2 9 2 25 0 35 -3 9 -5 1 -5 -18z"/>
<path d="M961 164 c0 -11 3 -14 6 -6 3 7 2 16 -1 19 -3 4 -6 -2 -5 -13z"/>
<path d="M1751 114 c0 -11 3 -14 6 -6 3 7 2 16 -1 19 -3 4 -6 -2 -5 -13z"/>
<path d="M3073 75 c0 -22 2 -30 4 -17 2 12 2 30 0 40 -3 9 -5 -1 -4 -23z"/>
<path d="M981 64 c0 -11 3 -14 6 -6 3 7 2 16 -1 19 -3 4 -6 -2 -5 -13z"/>
<path d="M1731 24 c0 -11 3 -14 6 -6 3 7 2 16 -1 19 -3 4 -6 -2 -5 -13z"/>
<path d="M991 14 c0 -11 3 -14 6 -6 3 7 2 16 -1 19 -3 4 -6 -2 -5 -13z"/>
</g>
</svg>
